<svg viewBox="0 0 512 512" width="26" height="26">
	<path d="M284 105.6c-19.9 3.5-33.8 8.8-47.7 18-21.7 14.4-39 38.5-45.3 63.3-7.7 30.5-2.8 61.8 13.8 87.7 2.9 4.5 5.2 8.5 5.2 9 0 .4-23.1 24-51.4 52.4-56.3 56.4-54.6 54.3-51.5 62.8 1.1 2.8 2.5 4.3 6.2 6.1 8.4 4.2 7 5.3 63.7-51.4 29.4-29.4 51.2-50.5 52.3-50.5 1 0 4.5 1.9 7.9 4.1 8.7 5.9 21.4 11.6 32.6 14.6 8.6 2.4 11.6 2.7 27.2 2.7 14.8.1 18.8-.3 26-2.1 41.4-10.5 72.8-42.6 82.1-83.8 2.8-12.9 3.1-32.1.5-44.5-3.7-17.5-10.3-31.8-21.7-47-14.2-18.9-36.6-33.2-60.9-39-9.1-2.2-32.2-3.6-39-2.4zm36 27.4c23.6 6.7 44 23.9 54.5 46.1 5.5 11.7 7.5 21.2 7.5 35.9 0 16-2.1 24.7-9.2 39-4.6 9.3-6.4 11.7-15.3 20.5-11.4 11.4-19.6 16.5-34.5 21.7-9.2 3.1-10 3.2-25.5 3.2-15.3 0-16.4-.1-25.5-3.2-15-5-23.1-10.1-34.6-21.6-9-9-10.7-11.3-15.3-20.6-7.1-14.4-9.1-23.1-9.1-39 0-15.9 2-24.6 9.1-39 4.7-9.4 6.3-11.6 15.3-20.6 8.4-8.3 11.7-10.8 19.3-14.7 11.3-5.8 15.8-7.5 24.8-9.3 9.9-1.9 28.8-1.2 38.5 1.6z" fill="currentColor"></path>
</svg>