<svg width="265" height="25" version="1.1" viewBox="0 0 265 25" xmlns="http://www.w3.org/2000/svg" preserveAspectRatio="none">
	<defs></defs>
	<g transform="matrix(1, 0, 0, 1, 0, -241.940002)">
		<path d="M -9.445 245.91 C -9.445 245.91 13.26 251.842 28.121 252.35 C 42.982 252.859 54.246 242.653 67.932 242.671 C 81.618 242.688 91.194 253.971 106.259 254.926 C 121.324 255.881 139.133 243.016 158.813 242.007 C 178.493 240.997 202.74 251.989 220.246 252.135 C 237.752 252.282 252.962 245.098 261.462 244.407 C 269.962 243.717 270.692 244.622 270.692 244.622 L 269.845 267.15 L -5.425 269.584 L -9.445 245.91 Z"></path>
		<path d="M -9.445 245.91 C -9.445 245.91 3.275 243.213 9.66 243.763 C 23.918 244.992 36.618 254.554 50.876 255.784 C 75.195 257.883 99.285 246.12 123.647 247.627 C 144.798 248.935 164.29 261.78 185.471 262.439 C 205.001 263.046 223.684 251.807 243.216 252.35 C 252.689 252.613 270.908 258.79 270.908 258.79 L 270.689 263.983 L -8.614 268.388 L -9.445 245.91 Z"></path>
		<path d="M -9.445 259.43 C -9.445 259.43 7.659 265.13 16.529 265.226 C 39.444 265.473 61.02 252.019 83.934 251.702 C 104.189 251.422 123.57 261.723 143.826 262.006 C 161.968 262.259 179.563 254.393 197.707 254.278 C 222.025 254.124 270.049 263.723 270.049 263.723 L 278.26 273.89 L -16.505 271.375 L -9.445 259.43 Z"></path>
	</g>
</svg>